<svg width="70" height="28" viewBox="0 0 70 28" fill="none" xmlns="http://www.w3.org/2000/svg">
<path d="M18.0975 18.7642C17.6314 18.7642 17.2992 18.4801 17.1884 18.0403C17.1192 17.7288 17.1007 17.202 17.1007 15.5482V14.8015C17.1284 13.6714 17.1423 13.0622 17.1423 12.9736C17.1423 11.5397 16.99 10.9029 16.5239 10.2615C15.901 9.4461 14.7705 8.9834 13.3723 8.9834C11.8404 8.9834 10.6868 9.38196 9.37629 10.3715C9.55625 10.967 9.59778 11.2327 9.59778 11.5855C9.59778 11.6496 9.59778 11.7596 9.57471 11.8695H9.84234C10.3776 10.77 11.3051 10.1516 12.4172 10.1516C13.7276 10.1516 14.6367 11.0312 14.6367 12.3093C14.6367 13.1064 14.2583 13.4363 13.1693 13.6974C11.4558 14.1097 10.4807 14.3678 10.2438 14.4716C9.17787 14.9755 8.60107 15.878 8.60107 17.0691C8.60107 18.7458 9.80081 19.8224 11.6419 19.8224C12.8832 19.8224 13.8153 19.3368 14.7474 18.2144C15.0797 19.2269 15.6334 19.6483 16.6532 19.6483C17.3222 19.6483 17.876 19.4926 18.4989 19.1169V18.7229C18.2959 18.7458 18.2082 18.7642 18.0975 18.7642ZM14.7013 14.7556C14.7013 16.1895 14.6782 16.6752 14.5905 17.1149C14.4152 17.9487 13.6169 18.5672 12.6848 18.5672C11.7527 18.5672 11.1759 17.8846 11.1759 16.7622C11.1759 15.7269 11.5727 15.0855 12.4402 14.7327C12.9063 14.5587 13.6584 14.293 14.7243 14.0089C14.7013 14.293 14.7013 14.4029 14.7013 14.7556Z" fill="#171717"/>
<path d="M35.526 14.2929C37.0349 14.2929 38.0131 14.3158 38.9867 14.357C39.0098 14.0501 39.0329 13.7615 39.0329 13.6515C39.0329 10.6554 37.3902 8.9375 34.5062 8.9375C31.3776 8.9375 29.4673 11.0082 29.4673 14.3799C29.4673 17.7516 31.4884 19.7765 34.7046 19.7765C36.0381 19.7765 37.0118 19.4925 38.2577 18.6999C38.3223 18.3014 38.3684 18.1456 38.5438 17.7058L38.613 17.5317L38.3869 17.3989C37.4778 18.2143 36.5457 18.6083 35.4383 18.6083C33.4172 18.6083 32.1528 17.092 32.1528 14.6456C32.1528 14.6227 32.1529 14.4669 32.1759 14.3387C33.3757 14.3158 34.4831 14.2929 35.526 14.2929ZM34.4831 9.75295C35.3921 9.75295 36.0151 10.3027 36.3012 11.338C36.435 11.8007 36.4811 12.2634 36.5273 13.3446C35.992 13.3904 35.8351 13.3904 34.9492 13.3904H34.3724C32.8635 13.3904 32.7527 13.3904 32.199 13.3675C32.2867 11.0998 33.1542 9.75295 34.4831 9.75295Z" fill="#171717"/>
<path d="M41.5617 10.2843H41.8294C41.8294 11.7594 41.8063 13.4544 41.7417 15.6396C41.7186 16.1023 41.7186 16.565 41.7186 16.7849C41.7186 18.7228 42.6969 19.7581 44.4688 19.7581C45.1563 19.7581 45.8023 19.6252 46.7114 19.3183L46.8221 18.5899C46.3099 18.7457 46.0238 18.7869 45.6454 18.7869C45.0456 18.7869 44.6257 18.5441 44.4226 18.0814C44.2242 17.6416 44.1781 17.243 44.1781 15.9466V14.0088C44.2011 11.0585 44.2012 11.0127 44.2242 10.6141V10.2843H44.5334L45.4193 10.3072H46.2407L46.4853 10.3301C46.4391 10.0002 46.4391 9.93153 46.4391 9.82158C46.4391 9.71163 46.4391 9.6475 46.4853 9.27184L44.2242 9.33598C44.2704 8.41059 44.2888 7.66386 44.2888 7.66386C44.335 7.15535 44.3765 6.67433 44.3996 6.16582L44.4226 5.83598L44.2888 5.70312C43.3336 6.22996 42.4477 6.60561 41.7371 6.78428C41.7601 7.24697 41.7601 7.35692 41.8017 8.12655C41.8478 8.54344 41.8478 8.76333 41.8478 9.05195V9.35888L40.1174 9.29475C40.1636 9.51464 40.1636 9.60168 40.1636 9.78035C40.1636 9.97734 40.1636 10.1102 40.1174 10.353C40.3851 10.3225 40.8665 10.3011 41.5617 10.2889V10.2843Z" fill="#171717"/>
<path d="M53.1206 19.7765C54.4542 19.7765 55.4278 19.4879 56.5584 18.787C56.6045 18.48 56.6691 18.1685 56.8675 17.6188L56.623 17.4859C55.8893 18.2372 54.9802 18.6083 53.9605 18.6083C51.764 18.6083 50.3889 16.9133 50.3889 14.2012C50.3889 11.4892 51.6302 9.81708 53.5405 9.81708C54.7403 9.81708 55.737 10.6096 56.0046 11.7549H56.3369C56.4245 11.2693 56.6922 10.4997 57.0013 9.83999C55.9816 9.22153 54.8695 8.9375 53.4713 8.9375C49.9229 8.9375 47.6572 11.0723 47.6572 14.4211C47.6572 17.77 49.7891 19.7765 53.116 19.7765H53.1206Z" fill="#171717"/>
<path d="M59.5346 19.4695C59.913 19.4695 60.2221 19.4924 60.8866 19.5566C60.7989 18.2555 60.7297 16.0107 60.7297 14.5356C60.7297 13.0605 60.7943 12.442 61.0204 11.8923C61.3988 10.9898 62.0863 10.5042 62.9723 10.5042C63.8582 10.5042 64.4812 10.9211 64.8134 11.6266C65.0349 12.1122 65.1226 12.7719 65.1226 14.0042C65.1226 15.9008 65.058 17.7058 64.9011 19.5566C65.6532 19.4924 65.967 19.4695 66.2993 19.4695C66.6546 19.4695 66.9406 19.4924 67.6513 19.5566C67.5867 18.6953 67.5405 16.9774 67.5405 15.7221C67.5405 15.2136 67.5405 14.6639 67.5636 14.1371C67.6097 13.4545 67.6282 12.7948 67.6282 12.5291C67.6282 11.4067 67.3375 10.6141 66.673 9.97278C66.0316 9.336 65.118 8.98325 64.1213 8.98325C62.7231 8.98325 61.6618 9.59713 60.7297 10.9211C60.7435 8.96493 60.822 5.32291 60.882 4.63574C60.3698 4.72278 60.1483 4.74569 59.5715 4.74569C58.9947 4.74569 58.6855 4.72278 58.1272 4.63574C58.261 7.30197 58.3025 7.7326 58.3025 10.7058C58.3025 14.6272 58.2379 17.4263 58.1272 19.5611C58.8378 19.497 59.147 19.4741 59.5254 19.4741L59.5346 19.4695Z" fill="#171717"/>
<path d="M70 23.034C69.174 23.0065 42.7245 22.9791 23.7179 22.9607C23.7594 25.3383 23.8102 27.4365 23.8701 28C23.2057 27.9359 22.8688 27.913 22.3843 27.913C21.8721 27.913 21.5168 27.9359 20.7831 28C20.8431 27.4136 20.8939 25.3658 20.9354 22.9562C11.7205 22.9516 4.84509 22.947 4.60976 22.947C3.86684 22.947 1.83652 22.9882 0.502966 23.034H0C0.373764 22.0124 2.20106 17.1427 3.3408 12.9601C3.93144 10.8024 4.4621 8.83246 4.77126 7.65969C5.70336 4.14594 6.10943 2.32722 6.54318 0C7.25379 0.256545 7.63217 0.380236 8.17205 0.51767C8.68425 0.655105 8.97034 0.705497 9.52406 0.783377C8.77653 2.90903 8.13975 5.26374 7.16612 8.92408C6.67238 10.7978 4.49901 18.659 3.82993 21.3757C3.92221 21.3802 4.1114 21.3802 4.18985 21.3802C4.66051 21.3802 11.6744 21.3711 20.9585 21.3482C21.0046 18.4666 21.0277 15.4247 21.0277 13.8671C21.0277 11.0268 20.9492 6.52814 20.797 4.87435C21.9275 4.96139 23.2564 5.0072 25.033 5.0072C26.4542 5.0072 28.0969 4.96139 29.0936 4.87435C29.029 5.22709 29.0059 5.42408 29.0059 5.7127C29.0059 5.9784 29.029 6.15249 29.0936 6.52814C27.9169 6.39529 25.7205 6.30825 23.7917 6.28534C23.704 8.11322 23.6717 11.9293 23.6717 13.3403C23.9347 13.3586 24.2024 13.3586 24.29 13.3586C25.5544 13.3586 26.4911 13.2716 27.797 13.1616C27.7093 13.5144 27.6862 13.6931 27.6862 14C27.6862 14.284 27.7093 14.4627 27.797 14.7696C26.468 14.6597 25.1575 14.5955 23.6486 14.5955V15.2323C23.6486 16.4692 23.6671 18.911 23.6948 21.339C42.7706 21.2932 69.0725 21.2062 70 21.0962C69.9123 21.5131 69.8893 22.0628 69.8893 22.3285C69.8893 22.5713 69.9123 22.7271 70 23.034Z" fill="#171717"/>
</svg>
