<svg width="21" height="20" viewBox="0 0 21 20" fill="none" xmlns="http://www.w3.org/2000/svg">
<path d="M0.25 15.6923L0.625 14.1923H5.61525L5.2405 15.6923H0.25ZM2.25 11.8077L2.625 10.3077H8.61525L8.2405 11.8077H2.25ZM17.3057 18.0095L17.8057 13.9905L18.5212 8.0865L18.7808 6.0155L17.3057 18.0095ZM3.25975 19.5L3.44225 18H17.3057L18.7808 6.0155H15.7807L15.4057 9H13.9057L14.2655 6.0155H9.78075L9.40575 9H7.8905L8.25 6.0155H4.8365L5.01925 4.5H8.43275L8.4615 4.25C8.59483 3.0705 9.00317 2.15067 9.6865 1.4905C10.3698 0.830167 11.3012 0.5 12.4808 0.5C13.5026 0.5 14.3452 0.883001 15.0087 1.649C15.6721 2.415 15.9762 3.31408 15.9212 4.34625L15.902 4.5H20.4328L18.577 19.5H3.25975ZM9.93275 4.5H14.4173L14.4365 4.34625C14.4788 3.71292 14.2882 3.1635 13.8645 2.698C13.4407 2.23267 12.9153 2 12.2885 2C11.6025 2 11.0631 2.19842 10.6702 2.59525C10.2773 2.99208 10.041 3.54367 9.9615 4.25L9.93275 4.5Z" fill="white"/>
</svg>
