<svg width="15" height="19" viewBox="0 0 15 19" fill="none" xmlns="http://www.w3.org/2000/svg">
<path d="M0 19V4H3.75V3.75C3.75 2.71417 4.116 1.83017 4.848 1.098C5.58017 0.366 6.46417 0 7.5 0C8.53583 0 9.41983 0.366 10.152 1.098C10.884 1.83017 11.25 2.71417 11.25 3.75V4H15V19H0ZM1.5 17.5H13.5V5.5H11.25V8.5H9.75V5.5H5.25V8.5H3.75V5.5H1.5V17.5ZM5.25 4H9.75V3.75C9.75 3.12317 9.53175 2.59142 9.09525 2.15475C8.65875 1.71825 8.127 1.5 7.5 1.5C6.873 1.5 6.34125 1.71825 5.90475 2.15475C5.46825 2.59142 5.25 3.12317 5.25 3.75V4Z" fill="#171717"/>
</svg>
