<svg width="10" height="9" viewBox="0 0 10 9" fill="none" xmlns="http://www.w3.org/2000/svg">
<path d="M1.87906 8.45768L1.96313 7.78456H3.42073L3.82531 6.16602H4.67073L5.28365 3.71414H2.42792L2.61219 2.20768H4.03448L4.04646 2.10352C4.10201 1.61206 4.27215 1.22879 4.55688 0.953724C4.8416 0.678585 5.22969 0.541016 5.72115 0.541016C6.14691 0.541016 6.49802 0.700599 6.77448 1.01977C7.05087 1.33893 7.1776 1.71355 7.15469 2.14362L7.14667 2.20768H9.03448L8.26125 8.45768H1.87906ZM0.625 6.87112L0.78125 6.24612H2.86052L2.70438 6.87112H0.625ZM1.45833 5.25258L1.61458 4.62758H4.11052L3.95438 5.25258H1.45833ZM4.65948 2.20768H6.52802L6.53604 2.14362C6.55368 1.87973 6.47424 1.65081 6.29771 1.45685C6.12111 1.26296 5.90222 1.16602 5.64104 1.16602C5.35521 1.16602 5.13045 1.24869 4.96677 1.41404C4.80302 1.57938 4.70458 1.80921 4.67146 2.10352L4.65948 2.20768Z" fill="#171717"/>
</svg>
