<svg width="18" height="18" viewBox="0 0 18 18" fill="none" xmlns="http://www.w3.org/2000/svg">
<path fill-rule="evenodd" clip-rule="evenodd" d="M0 5.20135C0 2.33142 2.31827 0 5.18398 0C6.81625 0 7.88004 0.597326 8.57368 1.38029C8.73733 1.565 8.87823 1.75876 8.99997 1.95147C9.12172 1.75876 9.2626 1.565 9.42624 1.38029C10.1199 0.597326 11.1837 0 12.816 0C15.6816 0 18 2.33142 18 5.20135C18 7.88792 16.4682 10.4714 14.7107 12.615C13.0458 14.6454 11.0817 16.3943 9.74074 17.5884C9.65354 17.666 9.56898 17.7413 9.48732 17.8141C9.20965 18.062 8.7903 18.062 8.51262 17.8141C8.43096 17.7413 8.3464 17.666 8.2592 17.5884C6.91829 16.3943 4.95406 14.6454 3.28928 12.615C1.53169 10.4714 0 7.88792 0 5.20135Z" fill="#DC2626"/>
</svg>
