<svg width="18" height="18" viewBox="0 0 18 18" fill="none" xmlns="http://www.w3.org/2000/svg">
<path fill-rule="evenodd" clip-rule="evenodd" d="M5.18398 1.464C3.13217 1.464 1.464 3.13458 1.464 5.20135C1.464 7.36268 2.71873 9.61016 4.42137 11.6867C5.91671 13.5105 7.6745 15.1051 8.99997 16.2875C10.3254 15.1051 12.0832 13.5105 13.5786 11.6867C15.2812 9.61016 16.536 7.36268 16.536 5.20135C16.536 3.13458 14.8678 1.464 12.816 1.464C11.5921 1.464 10.9309 1.88966 10.5221 2.35111C10.1401 2.78228 9.94602 3.26937 9.76855 3.71482C9.73766 3.79237 9.70727 3.86866 9.67647 3.94318C9.56332 4.21699 9.29625 4.3956 8.99997 4.3956C8.7037 4.3956 8.43664 4.217 8.32347 3.94319C8.29267 3.86866 8.26226 3.79236 8.23137 3.71478C8.05391 3.26934 7.85987 2.78227 7.47788 2.35111C7.06906 1.88966 6.40786 1.464 5.18398 1.464ZM0 5.20135C0 2.33142 2.31827 0 5.18398 0C6.81625 0 7.88004 0.597326 8.57368 1.38029C8.73733 1.565 8.87823 1.75876 8.99997 1.95147C9.12172 1.75876 9.2626 1.565 9.42624 1.38029C10.1199 0.597326 11.1837 0 12.816 0C15.6816 0 18 2.33142 18 5.20135C18 7.88792 16.4682 10.4714 14.7107 12.615C13.0458 14.6454 11.0817 16.3943 9.74074 17.5884C9.65354 17.666 9.56898 17.7413 9.48732 17.8141C9.20964 18.062 8.7903 18.062 8.51262 17.8141C8.43096 17.7413 8.3464 17.666 8.2592 17.5884C6.91829 16.3943 4.95406 14.6454 3.28928 12.615C1.53169 10.4714 0 7.88792 0 5.20135Z" fill="#171717"/>
</svg>
