<svg width="162" height="18" viewBox="0 0 162 18" fill="none" xmlns="http://www.w3.org/2000/svg">
<g filter="url(#filter0_d_46_64213)">
<path d="M2.48083 15.2294V2.48092H4.65499V4.24001H6.41408V5.97934H8.2127V11.2369H9.59626V2.48092H11.7902V15.2294H9.59626V13.4703H7.83717V11.7112H6.03854V6.4537H4.65499V15.2294H2.48083ZM15.9566 15.2294V13.4703H14.1777V4.24001H15.9566V2.48092H21.6885V4.24001H23.4871V6.4537H21.2932V4.71437H16.3519V7.75819H19.9096V9.95212H16.3519V13.0157H21.2932V11.2369H23.4871V13.4703H21.6885V15.2294H15.9566ZM27.6535 15.2294V13.4703H25.8747V2.48092H28.0488V13.0157H29.4324V9.47776H31.231V4.24001H33.3854V9.47776H35.184V13.0157H36.5676V2.48092H38.722V13.4703H36.9629V15.2294H34.7887V13.4703H32.9901V9.95212H31.6065V13.4703H29.8079V15.2294H27.6535ZM45.08 15.2294V2.48092H50.8119V4.24001H52.5907V5.97934H54.3894V11.7112H52.5907V13.4703H50.8119V15.2294H45.08ZM47.2542 13.0157H50.4363V11.2369H52.1954V6.4537H50.4363V4.71437H47.2542V13.0157ZM56.7769 15.2294V4.24001H58.5558V2.48092H64.2877V4.24001H66.0863V9.95212H64.2877V11.7112H63.418V13.0157H65.1771V15.2294H63.0227V13.4703H61.2241V11.7112H58.9511V15.2294H56.7769ZM58.9511 9.47776H63.8924V4.71437H58.9511V9.47776ZM70.2527 15.2294V13.4703H68.4738V4.24001H70.2527V2.48092H75.9846V4.24001H77.7832V13.4703H75.9846V15.2294H70.2527ZM70.648 13.0157H75.5893V4.71437H70.648V13.0157ZM80.1708 15.2294V4.24001H81.9496V2.48092H87.6815V4.24001H89.4801V9.95212H87.6815V11.7112H82.3449V15.2294H80.1708ZM82.3449 9.47776H87.2862V4.71437H82.3449V9.47776ZM95.8246 15.2294V4.24001H97.6034V2.48092H103.335V4.24001H105.134V6.4537H102.94V4.71437H97.9987V7.75819H101.556V9.95212H97.9987V15.2294H95.8246ZM107.521 15.2294V4.24001H109.3V2.48092H115.032V4.24001H116.831V9.95212H115.032V11.7112H114.163V13.0157H115.922V15.2294H113.767V13.4703H111.969V11.7112H109.696V15.2294H107.521ZM109.696 9.47776H114.637V4.71437H109.696V9.47776ZM119.218 15.2294V13.0157H120.997V4.71437H119.218V2.48092H124.95V4.71437H123.152V13.0157H124.95V15.2294H119.218ZM127.344 15.2294V2.48092H133.076V4.24001H134.855V5.97934H136.654V11.7112H134.855V13.4703H133.076V15.2294H127.344ZM129.519 13.0157H132.701V11.2369H134.46V6.4537H132.701V4.71437H129.519V13.0157ZM139.041 15.2294V5.97934H140.82V4.24001H142.599V2.48092H144.773V4.24001H146.552V5.97934H148.351V15.2294H146.157V11.7112H141.216V15.2294H139.041ZM141.216 9.47776H146.157V6.4537H144.398V4.71437H142.975V6.4537H141.216V9.47776ZM153.312 15.2294V8.19303H151.533V6.4537H149.754V2.48092H151.928V5.97934H153.687V7.75819H155.11V5.97934H156.869V2.48092H159.063V6.4537H157.265V8.19303H155.486V15.2294H153.312Z" fill="#B5ADE6"/>
</g>
<defs>
<filter id="filter0_d_46_64213" x="-0.000211239" y="2.38419e-06" width="161.544" height="17.7103" filterUnits="userSpaceOnUse" color-interpolation-filters="sRGB">
<feFlood flood-opacity="0" result="BackgroundImageFix"/>
<feColorMatrix in="SourceAlpha" type="matrix" values="0 0 0 0 0 0 0 0 0 0 0 0 0 0 0 0 0 0 127 0" result="hardAlpha"/>
<feOffset/>
<feGaussianBlur stdDeviation="1.24046"/>
<feComposite in2="hardAlpha" operator="out"/>
<feColorMatrix type="matrix" values="0 0 0 0 0.709804 0 0 0 0 0.678431 0 0 0 0 0.901961 0 0 0 0.82 0"/>
<feBlend mode="normal" in2="BackgroundImageFix" result="effect1_dropShadow_46_64213"/>
<feBlend mode="normal" in="SourceGraphic" in2="effect1_dropShadow_46_64213" result="shape"/>
</filter>
</defs>
</svg>
