<svg width="31" height="31" viewBox="0 0 31 31" fill="none" xmlns="http://www.w3.org/2000/svg">
<path d="M15.2024 9.15417L14.1204 8.07185C13.116 7.06732 11.7536 6.50297 10.333 6.50293C8.91242 6.50289 7.55001 7.06718 6.54548 8.07166C5.54096 9.07613 4.9766 10.4385 4.97656 11.8591C4.97653 13.2797 5.54081 14.6421 6.54529 15.6466L11.9324 21.0334L11.9558 21.0571L14.6614 23.7623C14.8106 23.9115 15.0065 23.9865 15.2024 23.9865" stroke="black" stroke-linecap="round" stroke-linejoin="round"/>
<path d="M15.2035 9.15379L16.2855 8.07185C17.2899 7.06732 18.6523 6.50297 20.0729 6.50293C21.4935 6.50289 22.8559 7.06718 23.8604 8.07166C24.8649 9.07613 25.4293 10.4385 25.4293 11.8591C25.4294 13.2797 24.8651 14.6421 23.8606 15.6466L15.7441 23.7623C15.5949 23.9115 15.399 23.9865 15.2031 23.9865" stroke="black" stroke-linecap="round" stroke-linejoin="round"/>
</svg>
