<svg width="16" height="17" viewBox="0 0 16 17" fill="none" xmlns="http://www.w3.org/2000/svg">
<path fill-rule="evenodd" clip-rule="evenodd" d="M8.00453 0C5.42614 0 3.33594 2.0902 3.33594 4.6686C3.33594 6.79732 4.76065 8.59328 6.70857 9.15497C5.17079 9.34236 3.85183 9.88627 2.85822 10.8655C1.59363 12.1118 0.953369 13.9672 0.953369 16.3883C0.953369 16.7262 1.22726 17 1.56512 17C1.90298 17 2.17686 16.7262 2.17686 16.3883C2.17686 14.1731 2.76007 12.68 3.71704 11.7369C4.6758 10.792 6.10714 10.3031 8.00447 10.3031C9.90181 10.3031 11.3332 10.792 12.292 11.7369C13.2489 12.68 13.8322 14.1731 13.8322 16.3883C13.8322 16.7262 14.106 17 14.444 17C14.7818 17.0001 15.0557 16.7262 15.0557 16.3884C15.0557 13.9672 14.4154 12.1118 13.1508 10.8655C12.1572 9.88628 10.8382 9.34238 9.30047 9.15498C11.2483 8.59331 12.6731 6.79733 12.6731 4.6686C12.6731 2.0902 10.5829 0 8.00453 0ZM4.55943 4.6686C4.55943 2.76592 6.10186 1.22349 8.00453 1.22349C9.90721 1.22349 11.4496 2.76592 11.4496 4.6686C11.4496 6.57127 9.90721 8.1137 8.00453 8.1137C6.10186 8.1137 4.55943 6.57127 4.55943 4.6686Z" fill="#9CA3AF"/>
</svg>
