<svg width="14" height="19" viewBox="0 0 14 19" fill="none" xmlns="http://www.w3.org/2000/svg">
<path fill-rule="evenodd" clip-rule="evenodd" d="M8.44651 0.0511151C8.70274 0.165981 8.85082 0.449485 8.805 0.737497L7.71323 7.60001H13.0451C13.274 7.60001 13.4834 7.73554 13.5858 7.95011C13.6882 8.16467 13.6661 8.42143 13.5286 8.61334L6.27414 18.7467C6.10692 18.9802 5.80892 19.0637 5.55268 18.9489C5.29644 18.8341 5.14836 18.5506 5.19419 18.2625L6.28595 11.4H0.954153C0.725175 11.4 0.515845 11.2645 0.413434 11.0499C0.311036 10.8353 0.333127 10.5786 0.470516 10.3867L7.72505 0.253381C7.89227 0.0197923 8.19027 -0.0637515 8.44651 0.0511151Z" fill="#988AFF"/>
</svg>
