<svg width="16" height="16" viewBox="0 0 16 16" fill="none" xmlns="http://www.w3.org/2000/svg">
<g clip-path="url(#clip0_2715_7335)">
<path d="M1.99968 2H9.99967C10.733 2 11.333 2.6 11.333 3.33333V4.66667C13.533 4.66667 15.333 6.46667 15.333 8.66667V12.6667H13.9997C13.9997 13.7713 13.1043 14.6667 11.9997 14.6667C10.895 14.6667 9.99967 13.7713 9.99967 12.6667H7.33301C7.33301 13.7713 6.43767 14.6667 5.33301 14.6667C4.22834 14.6667 3.33301 13.7713 3.33301 12.6667H1.99968C1.26634 12.6667 0.666342 12.0667 0.666342 11.3333V3.33333C0.666342 2.6 1.26634 2 1.99968 2ZM11.9997 13.3333C12.3673 13.3333 12.6663 13.0343 12.6663 12.6667C12.6663 12.299 12.3673 12 11.9997 12C11.632 12 11.333 12.299 11.333 12.6667C11.333 13.0343 11.632 13.3333 11.9997 13.3333ZM11.333 10.783C11.5417 10.709 11.7657 10.6667 11.9997 10.6667C12.5913 10.6667 13.1213 10.925 13.4873 11.3333H13.9997V9.33333H11.333V10.783ZM11.333 8H13.912C13.6147 6.85167 12.573 6 11.333 6V8ZM5.33301 13.3333C5.70068 13.3333 5.99968 13.0343 5.99968 12.6667C5.99968 12.299 5.70068 12 5.33301 12C4.96534 12 4.66634 12.299 4.66634 12.6667C4.66634 13.0343 4.96534 13.3333 5.33301 13.3333ZM1.99968 11.3333H3.84534C4.21167 10.925 4.74134 10.6667 5.33301 10.6667C5.92468 10.6667 6.45467 10.925 6.82067 11.3333H9.99967V3.33333H1.99968V11.3333Z" fill="#B45309"/>
</g>
<defs>
<clipPath id="clip0_2715_7335">
<rect width="16" height="16" fill="white" transform="matrix(-1 0 0 1 16 0)"/>
</clipPath>
</defs>
</svg>
